<?xml version="1.0" encoding="UTF-8"?>
<svg enable-background="new 0 0 431.9 340.5" version="1.1" viewBox="0 0 431.9 340.5" xml:space="preserve" xmlns="http://www.w3.org/2000/svg">

	
		
			<rect x="90.5" y="19.3" width="97.6" height="91.1" fill="#112B46"/>
			
				<rect x="90.5" y="19.3" width="97.6" height="9.6" fill="#1D262D"/>
			
			<path d="m167 24.3c0 1-0.8 1.8-1.8 1.8s-1.8-0.8-1.8-1.8 0.8-1.8 1.8-1.8 1.8 0.8 1.8 1.8z" fill="#606BF1"/>
			<path d="m174.3 24.3c0 1-0.8 1.8-1.8 1.8s-1.8-0.8-1.8-1.8 0.8-1.8 1.8-1.8 1.8 0.8 1.8 1.8z" fill="#FBD15B"/>
			<path d="m181.2 24.5c0 1-0.8 1.8-1.8 1.8s-1.8-0.8-1.8-1.8 0.8-1.8 1.8-1.8 1.8 0.8 1.8 1.8z" fill="#FF8578"/>
			<rect x="107.8" y="37.9" width="13.8" height="1.2" fill="#FF8578"/>
			<rect x="124.1" y="37.9" width="13.8" height="1.2" fill="#FBD15B"/>
			<rect x="112.1" y="44.2" width="21.4" height="1.2" fill="#606BF1"/>
			<rect x="137.1" y="44.2" width="10.9" height="1.2" fill="#FF8578"/>
			<rect x="119.5" y="50.4" width="9.4" height="1.2" fill="#FBD15B"/>
			<rect x="134.4" y="50.4" width="31.2" height="1.2" fill="#FBD15B"/>
			<rect x="126.8" y="56.7" width="35.7" height="1.2" fill="#606BF1"/>
			<rect x="117.9" y="63" width="11" height="1.2" fill="#FF8578"/>
			<rect x="133.6" y="63" width="11" height="1.2" fill="#606BF1"/>
			<rect x="107.8" y="95.4" width="16" height="1.2" fill="#FF8578"/>
			<rect x="129.4" y="95.4" width="16" height="1.2" fill="#FBD15B"/>
			<rect x="150.4" y="95.4" width="16" height="1.2" fill="#FF8578"/>
			<rect x="112.1" y="89.2" width="31.2" height="1.2" fill="#606BF1"/>
			<rect x="148.2" y="89.2" width="31.2" height="1.2" fill="#FF8578"/>
			<rect x="119.5" y="82.9" width="31" height="1.2" fill="#FF8578"/>
			<rect x="153.2" y="82.9" width="8.6" height="1.2" fill="#FBD15B"/>
			<rect x="117.5" y="76.6" width="11.7" height="1.2" fill="#FBD15B"/>
			<rect x="135.4" y="76.6" width="11.7" height="1.2" fill="#606BF1"/>
			<rect x="154.5" y="76.6" width="11.7" height="1.2" fill="#FF8578"/>
			<rect x="131" y="70.4" width="16.4" height="1.2" fill="#FBD15B"/>
			<rect x="108.5" y="70.4" width="16.3" height="1.2" fill="#606BF1"/>
			<rect x="98.8" y="36.8" width="1.5" height="1.5" fill="#F9FBFC"/>
			<path d="m100.3 91.3h-1.5v-3h1.5v3zm0-7.5h-1.5v-3h1.5v3zm0-7.6h-1.5v-3h1.5v3zm0-7.6h-1.5v-3h1.5v3zm0-7.6h-1.5v-3h1.5v3zm0-7.6h-1.5v-3h1.5v3zm0-7.5h-1.5v-3h1.5v3z" fill="#F9FBFC"/>
			<rect x="98.8" y="95.9" width="1.5" height="1.5" fill="#F9FBFC"/>
			<rect x="209" width="80.3" height="49.5" fill="#FF8578"/>
			<path d="m240.2 19.9-9.6 4.1 9.6 4-1.2 2.9-11.5-5.1v-3.5l11.5-5.1 1.2 2.7z" fill="#F9FBFC"/>
			<path d="m254.3 10.5-6.9 26.6-3.3-0.8 7-26.6 3.2 0.8z" fill="#F9FBFC"/>
			<path d="m270.9 22.2v3.5l-11.5 5.1-1.3-2.9 9.5-4-9.5-4.1 1.3-2.8 11.5 5.2z" fill="#F9FBFC"/>
			<rect x="286.6" y="95.9" width="45.8" height="32.6" fill="#606BF1"/>
			<path d="m305.7 103c-1.5 0-2 0.4-2 1.5v4.9c0 1.9-0.8 2.5-2.1 2.9 1.3 0.2 2.3 1.4 2.1 2.7v0.1 4.9c0 1.1 0.5 1.5 2 1.5v2.2c-3.7 0-4.8-1.2-4.8-3.7v-4.7c0-1.3-0.4-1.8-1.6-1.8v-2.5c1.2 0 1.6-0.5 1.6-1.9v-4.7c0-2.5 1-3.7 4.8-3.7v2.3z" fill="#F1F2F2"/>
			<path d="m318 104.5v4.7c0 1.3 0.4 1.9 1.6 1.9v2.4c-1.2 0-1.6 0.5-1.6 1.8v4.7c0 2.5-1 3.7-4.8 3.7v-2.2c1.5 0 2-0.4 2-1.5v-4.9c0-1.9 0.8-2.5 2.1-2.8-1.3-0.4-2.1-1-2.1-2.9v-4.9c0-1.1-0.5-1.5-2-1.5v-2.2c3.7 0 4.8 1.2 4.8 3.7z" fill="#F1F2F2"/>
			<rect x="59.4" y="7.1" width="51.3" height="34.3" fill="#FBD15B"/>
			<path d="m76.4 17c-2.8 3.7-2.2 9 1.5 11.8 2.8 2.2 6.8 2.4 9.8 0.4l5.4 5.4c0.2 0.2 0.6 0.2 0.8 0l1.5-1.5c0.2-0.2 0.2-0.6 0-0.8l-5.4-5.4c2.4-4 1-9.2-3-11.5-3.5-2.1-7.9-1.4-10.6 1.6zm10.8 9.5c-2.3 2.4-6.1 2.4-8.5 0.1s-2.4-6.1-0.1-8.5 6.1-2.4 8.5-0.1l0.1 0.1c2.3 2.3 2.3 6 0 8.4z" fill="#F9FBFC"/>
			
				<radialGradient id="h" cx="247.77" cy="229.4" r="12.934" gradientTransform="matrix(1 0 0 -1 0 342)" gradientUnits="userSpaceOnUse">
				<stop stop-color="#FFC8AF" offset="0"/>
				<stop stop-color="#FFBB9C" offset="1"/>
			</radialGradient>
			<path d="m260.1 113.2c-0.1 1.1-1.7 13-13.8 13-12.8 0-10.6-12.7-10.6-12.7v-0.1c1.3-0.3 2.7-0.3 4-0.2v-6l14.5-8.1h0.5v14c1.7-0.2 3.6-0.1 5.4 0.1z" fill="url(#h)"/>
			
				<radialGradient id="g" cx="232.46" cy="247.42" r="20.377" gradientTransform="matrix(.9776 -.2105 -.2105 -.9776 65.079 380.01)" gradientUnits="userSpaceOnUse">
				<stop stop-color="#FFC8AF" offset="0"/>
				<stop stop-color="#FFBB9C" offset="1"/>
			</radialGradient>
			<path d="m253 72.3c2.2 2.2 3.7 5 4.4 8.1 1.4 6.1 0.1 12.7-1.7 18.6-0.3 1-0.7 2-1.3 2.9-0.5 0.6-1 1.1-1.6 1.6l-7.7 6.8c-1.7 1.5-12.5 2.8-14.5 1.3-7.9-5.7-9.4-22-7.8-30.4 2.5-13.9 20.4-18.9 30.2-8.9z" fill="url(#g)"/>
			<path d="m248.6 90.1c0.1-1.3 1.5-2.8 2.9-1.9s1.1 3.3 0.5 4.6c-0.5 1-2 2.2-3.1 1.2-0.9-0.8 0.5-1.7 0.5-2.5s-1.3-1.1-0.7-1.8" fill="#F7B094"/>
			<path d="m248.9 96.3c2 0.3 3.8-0.8 4.5-2.7 0.4-1.4 0.6-2.8 0.6-4.3 0.5 1.5 0.6 3.2 0.4 4.7-0.4 2.9-1.4 5.7-3.7 5.7s-1.8-3.4-1.8-3.4z" fill="#F7B094"/>
			<path d="m247.1 94.2-0.2 0.1c-0.9 0.1-1.3-1-1.4-1.6-0.2-1.6-0.3-3.2-0.3-4.8 0-0.4 0-0.9-0.1-1.3-0.5-1.1-1.8-1.9-2.2-3.1-0.5-1.4 0.9-2.8 0.3-4.3-0.8-2.3-3.8-2.8-5.9-2.8-3.2 0.1-6.4 0.5-9.5 1.1-3.4 0.5-7.6 1-10.6-1.1-3.6-2.6-5.1-9.2-2.4-12.9 1.6-2 4-3.1 6.6-3.1 2.6-0.1 4.7 1.5 7.1 2.2 1.9 0.6 3.7-1.2 5.4-1.5 2.2-0.4 3.1 2 5.1 2s3.7-1.4 5.6-1.7c3.6-0.7 3.4 3 5.9 4.3 1.5 0.8 3.5 0.3 5 1.1 1.2 0.6 1.3 1.7 1.6 2.8 0.1 1.1 0.3 2.2 0.6 3.2 0.4 0.8 1 1.5 1.7 2.1 0.6 0.8 1.1 1.6 1.4 2.6 0.7 2.1 0.9 4.4 0.7 6.6-0.5 3.7-1.4 7.3-2.7 10.8-0.8 2.3-1.1 4.6-2.3 6.7-0.3 0.6-1.8 2.3-2.3 1-0.1-0.3-0.1-0.6-0.1-0.9 0.2-2.3 2.3-17.3-3.3-15.5-1.1 0.4-2 1.3-2.4 2.5-0.5 1.3-0.6 2.7-0.5 4.1v0.6c-0.5 0.4-0.6 0.7-0.8 0.8z" fill="#3D3D7A"/>
			<path d="m239.6 111.8c6.4-1 10.7-6.1 10.7-6.1-1.2 5.2-5.8 8.9-11.1 9l0.4-2.9z" fill="#F7B094"/>
			<path d="m257.8 318.9h-6c-0.9 0-1.6-0.7-1.6-1.6v-88.5h9.2v88.5c0 0.9-0.7 1.6-1.6 1.6z" fill="#0A2033"/>
			<path d="m273.8 237.8h-38.1c-3.5 0-6.3-2.8-6.3-6.3v-1.4h50.7v1.4c0.1 3.4-2.8 6.3-6.3 6.3z" fill="#30475E"/>
			<path d="m257.8 330.6h-6c-0.9 0-1.6-0.7-1.6-1.6v-20.5h9.2v20.5c0 0.8-0.7 1.6-1.6 1.6z" fill="#0A2033"/>
			<path d="m206.9 325.2c0 3 2.4 5.4 5.4 5.4s5.4-2.4 5.4-5.4-2.4-5.4-5.4-5.4-5.4 2.4-5.4 5.4z" fill="#0A2033"/>
			<path d="m291.9 325.2c0 3 2.4 5.4 5.4 5.4s5.4-2.4 5.4-5.4-2.4-5.4-5.4-5.4-5.4 2.4-5.4 5.4z" fill="#0A2033"/>
			<rect x="245.5" y="301.6" width="18.6" height="16.2" fill="#30475E"/>
			<path d="m302.7 321.6h-95.8v-1.9c0-3.2 2.6-5.8 5.8-5.8h84.3c3.2 0 5.8 2.6 5.8 5.8v1.9h-0.1z" fill="#FBD15B"/>
			<rect x="251.6" y="239.6" width="3.2" height="60.6" fill="#30475E"/>
			<path d="m291 164.6c-2.1-0.1-3.8 1.6-3.9 3.6v0.4c0.6 11-1.7 37.8-11.9 47-12.5 11.2-48 9.7-48 9.7s-5.9 7.2 5.9 8.8 44.7 0.5 52.7-6.9c7.7-7.2 12.3-26.1 8.9-59-0.2-1.9-1.7-3.3-3.6-3.4l-0.1-0.2z" fill="#FBD15B"/>
			
				<radialGradient id="f" cx="220.22" cy="34.225" r="8.126" gradientTransform="matrix(1 0 0 -1 0 342)" gradientUnits="userSpaceOnUse">
				<stop stop-color="#FFC8AF" offset="0"/>
				<stop stop-color="#FFBB9C" offset="1"/>
			</radialGradient>
			<polygon points="224.6 300.1 228.8 309.8 215.9 315.4 211.6 305.8" fill="url(#f)"/>
			<path d="m285.5 193.2c-0.8 1.6-58.2 0-63.6 0.5 0 0-35.1 16.8-40.2 32.5-0.5 2-0.7 4.1-0.5 6.2 1.4 22.1 26.6 75.1 26.6 75.1l3.9-1.7 12.9-5.6 1.8-0.8s-20-59.5-16-62.7 49.3-11.2 65-15.4 10.1-28.1 10.1-28.1z" fill="#56548C"/>
			
				<radialGradient id="e" cx="168.75" cy="32.19" r="7.4017" gradientTransform="matrix(1 0 0 -1 0 342)" gradientUnits="userSpaceOnUse">
				<stop stop-color="#FFC8AF" offset="0"/>
				<stop stop-color="#FFBB9C" offset="1"/>
			</radialGradient>
			<polygon points="175.3 302.6 176.3 317 162.2 317 161.2 302.6" fill="url(#e)"/>
			<path d="m221.6 193.3-0.5 0.2s-58.8 8.3-68.4 24.8c-6.2 10.7 5.8 89.2 5.8 89.2h20.8s-3.1-65.4-2.1-69c1.2-4.2 3.2-5.7 4-6.1-0.2-2.1 0-4.2 0.5-6.2 5-15.7 40.2-32.5 40.2-32.5-0.1-0.1-0.3-0.3-0.3-0.4z" fill="#3D3D7A"/>
			<path d="m278.4 138.9-4 0.5c-0.7 7.1-1.8 14.3-3.3 21.3l-49.1 18.7-0.7 3.6-0.6-0.1c0 0.7 0 1.4 0.1 2.1 0.1 4.1 0.4 7.1 0.8 8.3 0 0.2 0.1 0.4 0.3 0.5 1.3 1.1 18.7-1 37.5 5.9 16.3 6 25.4 12.5 25.9 11.6 5.1-10.7-4.2-52.5-6.9-72.4z" fill="#FF8578"/>
			<path d="m273.3 163.3c-1.3 6.3-4.7 18.8-11.3 20.5-8.7 2.2-25.5 2.1-41.2 1.2 0-0.7 0-1.4-0.1-2.1l0.6 0.1 0.7-3.6 49.2-18.7c1.5-7 2.6-14.1 3.3-21.3v0.2c0.1 1.7 0.8 14.4-1.2 23.7z" fill="#F4675D"/>
			<path d="m224 123.2c-0.9 1.6-2.1 18.7-2.8 35.7l-10.1-9.4c4.3-8.3 12.9-26.3 12.9-26.3z" fill="#F4675D"/>
			<path d="m218 171.2c-8.5 1.5-16.3 2.7-16.3 2.7v0.4c-9.4-7.5-23.8-28.9-23.8-28.9s4.3-5.2 5.4-6.5c0.2-0.2 23.6 15.9 24.8 15.8 0.3 0 1.5-2.1 3.1-5.3l10.1 9.4c-0.2 4-0.3 8.1-0.4 11.9l-2.9 0.5z" fill="#F7B094"/>
			
				<radialGradient id="a" cx="213.82" cy="171.08" r="41.44" gradientTransform="matrix(1 0 0 -1 0 342)" gradientUnits="userSpaceOnUse">
				<stop stop-color="#FFC8AF" offset="0"/>
				<stop stop-color="#FFBB9C" offset="1"/>
			</radialGradient>
			<path d="m201.7 174-0.2 7h-25.5s2.5-10 9.4-10 9.6 3.7 9.6 3.7l6.7-0.7z" fill="url(#a)"/>
			<path d="m183.1 138.8 0.2 0.2c-1.1 1.4-5.4 6.5-5.4 6.5l-2.7-1.9c-2 1.1-4.4 1-6.4-0.1-3.6-1.9-1.4-6.6-1.2-7.1-0.7 0.2-5 3.6-5.6 3.3s-1.2-1.6 3.6-6.3 11.3 1.3 11.4 1.3l6.1 4.1z" fill="#F7B094"/>
			<path d="m169.4 142.7s-1 1.9 0.8 2.8c2.2 0.9 4.6 1.3 6.9 1.3 1.5-0.1 2.7-2.3 2.7-2.3l-4.6-4.4h-3.7l-2.1 2.6z" fill="#F7B094"/>
			<path d="m169.1 143.7c0.3-0.9 2.9-0.4 4.5-0.4 1.2 0 1.9-0.3 2.2-1.2s-1.4-2.4-1.7-1.9 0.6 1.1 0.7 1.7-1.7 0.8-3.1 0.8c-1.2 0-2.5 0.2-3.7 0.4l1.1 0.6z" fill="#E8987C"/>
			
				
			<path d="m268.7 169.8-25-8.9c-1.8 3.4-3.8 6-5.7 6.5-2.9 0.8-10 2.1-17.1 3.3l-2.8 0.5c-8.5 1.5-16.3 2.7-16.3 2.7v0.7l-0.2 6.3v1.6c6.4-0.2 12.8-0.1 19.2 0.3 15 1.1 34.3 1.7 40.8-1.3 3-1.4 5.4-6.1 7.3-11.8l-0.2 0.1z" fill="url(#a)"/>
			<polygon points="243.6 160.9 268.7 169.8 267.5 173.1 242.8 162.5" fill="#F7B094"/>
			<path d="m243.6 160.9c-1.8 3.4-3.8 6-5.7 6.5-2.9 0.8-10 2.1-17.1 3.3 0.1-3.8 0.2-7.9 0.4-11.9 0.7-17 1.9-34.1 2.8-35.7 1.4-2.7 5.4-8.5 11.6-9.8v0.1s-2.1 12.7 10.6 12.7c12.2 0 13.7-11.8 13.8-13 6.3 0.7 15.9 3.8 17.2 16.4 0.3 2.5 0.7 5.7 1.1 9.3l-3.9 0.5s-1.6 17.7-5.7 30.3h-0.1l-25-8.7z" fill="#FF8578"/>
			<polygon points="243.4 158.6 253.4 134.4 246 159.6" fill="#6D4B35"/>
			<path d="m260.1 113.2h-5.4s-7.8 8.5-12.7 8.5-2.3-8.5-2.3-8.5h-2.4c-7 0-12.9 5.2-13.7 12.2-0.1 0.8-0.2 1.6-0.2 2.2-0.5 5.2 20.3 8.9 20.3 8.9l10.7-0.6 6.5-12.7 1.3-5.2-2.1-4.8z" fill="#FF8578"/>
			<path d="m194.3 326.5c0.5 2.6 2.3 4.5 4.9 4l34.7-6.5c0.9-0.2 1.4-1 1.3-1.9l-0.6-3.1s-36.4 6.4-40.3 7.5z" fill="#F1F2F2"/>
			<path d="m204.7 317.8 1.1-0.9 3-2.7 1.8-1.6 1.1-1 1.4-1.3c0.3-0.2 0.7-0.2 1 0 1.4 1.2 6 4 14.4-1.2 0.4-0.2 0.9-0.1 1.1 0.2v0.1l5.1 9.7s-36.5 6.4-40.3 7.5c1.2-0.9 5.8-5 10.3-8.8z" fill="#3D3D7A"/>
			<path d="m139.7 326.1c0.1 2.6 1.6 4.8 4.2 4.7l35.3-0.9c0.9 0 1.6-0.8 1.6-1.6l-0.1-3.1s-37 0.5-41 0.9z" fill="#F1F2F2"/>
			<path d="m151.3 319.2 1.2-0.8 2.3-1.5 1.1-0.7 2-1.3 1.2-0.8 1.6-1c0.3-0.2 0.7-0.1 1 0.1 1.2 1.4 5.3 4.9 14.4 1.1 0.4-0.2 0.9 0 1.1 0.4l3.4 10.4s-37 0.5-41 0.9c1.4-0.5 6.7-3.7 11.7-6.8z" fill="#3D3D7A"/>
			<polygon points="114.6 182.6 95.7 132.3 149.4 132.3 168.2 182.6" fill="#ABB5BA"/>
			<polygon points="171.6 182.6 168.2 182.6 149.4 132.3 152.4 132.4 169.8 177.9" fill="#8495A0"/>
			<polyline points="98.6 177.1 98.9 177.1 166.2 177.1" fill="none"/>
			<path d="M170.5,182.6H206l-0.1-3.2h-36.1" fill="#8495A0"/>
			<rect x="313" y="192.2" width="8.5" height="140.2" fill="#8495A0"/>
			<rect x="266.7" y="192.2" width="8.5" height="140.2" fill="#ABB5BA"/>
			<rect x="118.3" y="192.2" width="8.5" height="140.2" fill="#8495A0"/>
			<rect x="71.9" y="192.2" width="8.5" height="140.2" fill="#ABB5BA"/>
			<path d="m63.7 182.6h266.4c2.3 0 4.1 1.9 4.1 4.1v1.8c0 2.3-1.9 4.1-4.1 4.1h-266.4c-2.3 0-4.2-1.9-4.2-4.1v-1.8c0.1-2.3 1.9-4.1 4.2-4.1z" fill="#141B56"/>
			<polygon points="104.7 137.6 105.6 140 116.3 140 115.4 137.6" fill="#8495A0"/>
			<polygon points="211.1 149.5 210.4 150.9 221.2 162.1 221.2 158.8" fill="#E8987C"/>
			<rect y="330.6" width="431.9" height="9.9" fill="#A5B7C6"/>
			
				<linearGradient id="d" x1="404.98" x2="365.64" y1="323.55" y2="273.95" gradientTransform="matrix(.78 -.62 -.62 -.78 238.8 723.09)" gradientUnits="userSpaceOnUse">
				<stop stop-color="#606BF1" offset="0"/>
				<stop stop-color="#58479F" offset="1"/>
			</linearGradient>
			<path d="m363.4 257.4c-1.7 8.3-1.2 22.5-12.2 24.8-3 0.6-5.8-1.5-7.6-3.8-2.3-3.1-2.8-9.6-2.8-13.4 0-3 1-6.3 1.4-9.2 0.4-3.2 0.6-6.4 1-9.7 1.4-11.6 7.4-21.3 17.7-27.1 0.8 3.8 2.6 7 4.2 10.7 0.7 1.7 1.4 3.4 1.9 5.2 0.8 3.1-0.2 6.2-0.9 9.2-1.1 4.3-1.7 8.9-2.7 13.3z" fill="url(#d)"/>
			<path d="m349.4 282.5 0.3-2.1c1.3-0.1 2.6-0.6 3.8-1.3 1.9-1 3.6-2.4 5-3.9 0.1-0.1 0-0.2-0.1-0.1-1.5 1.3-3.1 2.4-4.8 3.3-1.2 0.6-2.4 1.1-3.7 1.4 0.1-0.8 0.2-1.7 0.4-2.5 1.4-0.3 2.7-0.9 3.8-1.8 1.9-1.2 3.7-2.6 5.4-4.1-2.7 2-5.7 4.7-9.1 5.4 0.2-1 0.4-2.1 0.6-3.1v-0.2c3.9-1 6.6-4.1 9.6-6.6 0 0 0-0.1-0.1-0.1-3 2.3-5.8 4.9-9.4 6.1 0.3-1.5 0.6-3 1-4.4 3.5-1.3 6.5-3.5 8.9-6.3v-0.1h-0.1c-2.5 2.5-5.4 4.4-8.7 5.8 0.3-1.5 0.7-2.9 1-4.4 1.6-0.6 3.1-1.4 4.6-2.2 1.4-1 2.6-2.2 3.6-3.6 0-0.1-0.1-0.1-0.1-0.1-2 2.9-5 3.8-7.9 5.3 0.3-1.4 0.5-2.7 0.8-4.1 3.2-1.8 6.8-3.4 8.6-6.9v0c-1.9 3.1-5.3 4.5-8.4 6.2l0.1-0.7c0.2-1.3 0.4-2.5 0.6-3.8 1.9-0.8 3.6-1.8 5.3-2.9 1.3-0.7 2.4-1.6 3.2-2.8 0-0.1-0.1-0.1-0.1-0.1-1.7 2.5-5.5 3.9-8.3 5.2l0.5-3.9c3.1-1.9 6.8-2.9 8.7-6.3 0 0 0-0.1-0.1-0.1h-0.1c-2 3.1-5.5 4.1-8.5 5.8 0.1-0.8 0.2-1.6 0.4-2.4 3.4-1.2 7.3-4.1 9-7.1 0-0.1 0-0.2-0.1-0.2h-0.2c-2.2 3-5.2 5.3-8.7 6.6l0.6-3.9v-0.1c1.5-0.6 3-1.4 4.3-2.3 1.6-0.9 3-2.2 4-3.7 0.1-0.2-0.2-0.3-0.3-0.2-1.5 2.7-5 4.4-8 5.5l0.3-1.4 0.4-2.1c1.2-0.8 2.7-1.2 3.9-2.1 1-0.8 2-1.7 2.9-2.6v-0.1h-0.1c-1.2 1.2-2.5 2.2-4 3-0.8 0.4-1.8 0.7-2.6 1.2 0.2-1.1 0.5-2.3 0.7-3.4h0.1c0.1 0 0.1 0 0.2-0.1 1.6-0.4 2.9-1.8 4-3-1.1 1.2-2.5 2.1-4 2.7h-0.1c0.2-0.9 0.4-1.9 0.5-2.8 0.1 0 0.2-0.1 0.2-0.2 0.9-0.6 1.7-1.3 2.4-2v-0.1s-0.1 0-0.1 0c-0.7 0.6-1.5 1.2-2.4 1.7 0.3-1.9 0.5-3.9 0.6-5.8 0-0.1-0.1-0.1-0.1-0.1-0.1 0-0.1 0.1-0.1 0.1-0.2 1.9-0.5 3.8-0.8 5.6-1-1.1-1.8-2.4-2.5-3.8 0-0.1-0.1 0-0.1 0 0.3 0.8 0.7 1.6 1.2 2.3 0.4 0.7 0.8 1.4 1.3 2l-0.6 3c-1.1-0.1-2.1-0.5-3-1.2-1.2-1-1.9-2.4-2-3.9 0-0.2-0.3-0.2-0.3 0 0.1 1.4 0.7 2.7 1.6 3.7 0.9 0.9 2.1 1.5 3.5 1.7-0.2 1.1-0.5 2.3-0.7 3.4-1-0.6-1.9-1.3-2.8-2.1-1.3-1.2-2.5-2.5-3.6-3.9-0.1-0.1-0.3 0.1-0.2 0.2 1 1.3 2.1 2.6 3.3 3.7 1 0.9 2 1.7 3.2 2.4v0.2c-0.1 0.1-0.1 0.2 0 0.3-0.2 1.1-0.5 2.2-0.7 3.3v0.2c-2.6-1.2-6.4-3.2-6.7-6.2 0-0.1-0.1-0.2-0.2-0.2s-0.2 0.1-0.2 0.2c0.8 3.4 4.5 4.9 7 6.7-0.3 1.3-0.5 2.5-0.7 3.8-1.7-0.5-3.2-1.3-4.6-2.4-1.3-1-3-2.2-3.6-3.8h-0.1c0.5 1.5 2.1 2.6 3.3 3.7 1.4 1.4 3.1 2.4 4.9 3v0.2c-0.1 0.8-0.3 1.6-0.4 2.4-3.1-0.2-7.5-2.6-9-5 1.1 1.7 2.7 3 4.6 3.8 1.4 0.8 2.9 1.3 4.4 1.6-0.2 1.5-0.4 3-0.7 4.4-1.4-0.5-2.8-0.8-4.1-1.3-1.9-0.8-3.6-2.2-4.7-4-0.1-0.1-0.3 0-0.2 0.1 2.2 3.4 5.3 4.4 8.9 5.7l-0.6 3.6c-3-0.6-6.8-2.4-8.3-5-0.1-0.2-0.4 0-0.3 0.1 0.9 1.6 2.4 3 4 3.8 1.2 0.6 2.9 1.6 4.3 1.7v0.1c-0.3 1.7-0.6 3.5-1 5.2-3.3-0.8-5.5-3.3-7.9-5.6-0.2-0.2-0.4 0.1-0.3 0.3 2.5 2.4 4.6 5 8 5.9-0.3 1.4-0.6 2.8-1 4.2-2.9-0.9-5.5-2.7-7.5-5.1-0.1-0.2-0.4 0.1-0.2 0.2 1.9 2.5 4.6 4.4 7.6 5.4-0.4 1.5-0.8 3-1.1 4.5-2.8-0.6-5.3-2.2-6.9-4.6 0 0-0.1 0-0.1 0.1 1.6 2.2 4 4.8 6.9 5l-0.4 1.4c-0.1 0.3-0.2 0.6-0.2 0.9-2.2-0.5-4.2-1.5-6-2.9 0 0-0.1 0-0.1 0.1 1.7 1.5 3.8 2.6 6 3.3-0.3 0.9-0.5 1.8-0.8 2.8-0.5-0.3-1.1-0.5-1.7-0.7-1-0.4-1.9-0.9-2.7-1.6-0.1-0.1-0.2 0.1-0.1 0.1 0.7 0.6 1.5 1.2 2.4 1.6 0.7 0.3 1.4 0.6 2 0.9-1 3.7-1.9 7.7-1.4 11.2 0.1 0.8 1.4 1 1.6 0.2 0.6-2.7 0.9-5.3 1.1-8z" fill="#747DED"/>
			
				<linearGradient id="c" x1="474.08" x2="434.74" y1="455.71" y2="406.12" gradientTransform="matrix(.45 -.89 -.89 -.45 497.35 853.42)" gradientUnits="userSpaceOnUse">
				<stop stop-color="#606BF1" offset="0"/>
				<stop stop-color="#58479F" offset="1"/>
			</linearGradient>
			<path d="m328.6 255.1c2 8.3 8.4 20.9-0.6 27.6-2.4 1.8-5.9 1.1-8.5-0.3-3.3-1.8-6.6-7.5-8.1-10.9-1.2-2.7-1.7-6.1-2.7-9-1-3.1-2.1-6.1-3.2-9.2-3.7-11.1-2.3-22.5 4.6-32.1 2.3 3.1 5.3 5.3 8.3 7.9 1.4 1.2 2.7 2.5 3.9 3.9 2.1 2.4 2.5 5.7 3 8.7 0.9 4.5 2.2 8.9 3.3 13.4z" fill="url(#c)"/>
			<path d="m326.4 283.7c-0.2-0.7-0.4-1.3-0.6-2 1.2-0.7 2.1-1.7 2.9-2.8 1.2-1.7 2.2-3.6 2.9-5.7 0-0.1-0.1-0.2-0.2-0.1-0.8 1.8-1.8 3.5-3 5-0.8 1.1-1.7 2-2.8 2.8-0.2-0.8-0.5-1.6-0.7-2.4 1.1-0.9 2-2 2.7-3.2 1.2-1.9 2.3-4 3.2-6-1.6 2.9-3.1 6.7-6 8.7-0.3-1-0.5-2-0.8-3.1v-0.2c3.1-2.6 4.3-6.5 5.9-10 0-0.1 0-0.1-0.1 0-1.7 3.3-3.1 6.9-6 9.5-0.3-1.5-0.7-2.9-1-4.4 2.6-2.6 4.5-5.9 5.4-9.5v-0.1s-0.1 0-0.1 0.1c-1.2 3.3-3.1 6.3-5.4 8.9-0.3-1.5-0.6-2.9-1-4.4 1.2-1.2 2.3-2.6 3.2-4 0.9-1.5 1.5-3.1 1.7-4.8 0 0 0-0.1-0.1-0.1s-0.1 0-0.1 0.1c-0.6 3.4-2.9 5.5-4.9 8.1-0.3-1.4-0.6-2.7-1-4 2.2-3 4.7-6 4.9-9.8 0 0-0.1-0.1-0.1 0-0.4 3.7-3 6.3-5 9.2-0.1-0.2-0.1-0.5-0.2-0.7-0.4-1.2-0.7-2.5-1.1-3.7 1.4-1.5 2.6-3.1 3.6-4.9 0.9-1.1 1.5-2.5 1.8-3.9 0-0.1-0.1-0.1-0.1 0-0.5 3-3.4 5.9-5.4 8.2-0.4-1.2-0.8-2.5-1.1-3.7 2-3 4.9-5.5 5.2-9.4 0-0.1-0.2-0.1-0.2 0-0.5 3.6-3.3 6-5.2 8.9-0.2-0.8-0.5-1.5-0.7-2.3 2.5-2.5 4.9-6.7 5.2-10.3 0-0.1-0.1-0.1-0.2-0.1s-0.1 0.1-0.1 0.1c-0.7 3.7-2.5 7-5.1 9.7-0.4-1.3-0.7-2.5-1-3.8v-0.1c1.1-1.2 2.1-2.5 2.9-3.9 1.1-1.5 1.8-3.2 2.1-5.1 0-0.1-0.1-0.2-0.2-0.2s-0.2 0.1-0.2 0.2c-0.2 3-2.7 6.2-4.9 8.3-0.1-0.5-0.2-0.9-0.4-1.4-0.2-0.7-0.3-1.4-0.5-2.1 0.7-1.3 2-2.3 2.7-3.6 0.6-1.1 1.1-2.3 1.5-3.6 0-0.1 0-0.1-0.1-0.1h-0.1c-0.6 1.6-1.3 3.1-2.3 4.4-0.6 0.8-1.3 1.4-1.8 2.2-0.3-1.1-0.5-2.3-0.8-3.4 0.1 0 0.1-0.1 0.1-0.1 1.3-1.1 1.9-2.9 2.3-4.4m0.1 0.2c-0.5 1.5-1.4 3-2.5 4.1h-0.1c-0.2-0.9-0.5-1.8-0.7-2.8 0.1-0.1 0.1-0.2 0.1-0.3 0.5-0.9 1-1.9 1.3-2.9v-0.1h-0.1c-0.4 0.9-0.9 1.7-1.5 2.5-0.5-1.9-1.1-3.7-1.9-5.6-0.1-0.2-0.3-0.1-0.3 0.1 0.6 1.8 1.2 3.6 1.7 5.4-1.4-0.6-2.6-1.4-3.8-2.4-0.1 0-0.1 0-0.1 0.1 0.6 0.6 1.3 1.2 2.1 1.6 0.6 0.5 1.3 0.9 2 1.3 0.3 1 0.5 2 0.7 3-2.5 1-5.3-0.1-6.5-2.4-0.1-0.2-0.4 0-0.3 0.1 0.7 1.2 1.7 2.1 3 2.6 1.2 0.5 2.6 0.5 3.8 0.1 0.3 1.1 0.5 2.3 0.8 3.4-1.2-0.2-2.3-0.4-3.4-0.7-1.7-0.6-3.3-1.2-4.9-2-0.1 0-0.2 0-0.2 0.1s0 0.2 0.1 0.2c1.5 0.8 3 1.4 4.6 2 1.3 0.4 2.6 0.7 3.9 0.9v0.2 0.1c0 0.1 0 0.2 0.1 0.2 0.2 1.1 0.5 2.2 0.7 3.3v0.2c-2.8 0-7.1-0.2-8.7-2.8-0.1-0.2-0.5 0-0.3 0.3 2.1 2.7 6.1 2.5 9.2 3.1 0.3 1.2 0.6 2.5 1 3.7-1.7 0.2-3.5 0.2-5.2-0.2-1.6-0.4-3.7-0.7-4.9-1.9 0 0-0.1 0 0 0.1 1.1 1.2 3 1.5 4.5 1.9 1.8 0.7 3.8 0.9 5.7 0.7 0 0.1 0 0.1 0.1 0.1 0.2 0.8 0.4 1.6 0.7 2.3-2.9 1.1-7.9 0.8-10.3-0.7 1.7 1 3.7 1.6 5.7 1.5 1.6 0.2 3.2 0 4.7-0.4 0.4 1.4 0.8 2.9 1.3 4.3-1.4 0.1-2.8 0.5-4.3 0.6-2.1 0-4.2-0.7-6-1.9-0.1-0.1-0.2 0.1-0.1 0.2 3.4 2.2 6.6 1.8 10.5 1.4 0.4 1.2 0.7 2.3 1 3.5-2.9 0.7-7.2 0.7-9.6-1-0.2-0.1-0.4 0.1-0.2 0.3 1.6 1 3.5 1.5 5.4 1.4 1.4 0 3.3 0.3 4.6-0.3v0.1c0.5 1.7 0.9 3.4 1.3 5.1-3.4 0.6-6.3-0.7-9.5-1.8-0.2-0.1-0.4 0.3-0.1 0.3 3.3 1.1 6.3 2.5 9.8 1.9l0.9 4.2c-3 0.4-6.1-0.1-8.9-1.5-0.2-0.1-0.3 0.2-0.1 0.3 2.8 1.4 6 2 9.1 1.7l0.9 4.5c-2.8 0.7-5.7 0.2-8.2-1.2-0.1 0-0.1 0.1-0.1 0.1 2.4 1.3 5.6 2.6 8.4 1.6l0.3 1.5c0.1 0.3 0.1 0.6 0.2 0.9-2.2 0.4-4.5 0.4-6.7-0.1-0.1 0-0.1 0.1 0 0.1 2.2 0.6 4.5 0.8 6.8 0.4 0.2 0.9 0.3 1.9 0.5 2.8-0.6 0-1.2 0-1.8 0.1-1.1 0-2.1-0.1-3.2-0.3-0.1 0-0.1 0.1 0 0.1 0.9 0.3 1.9 0.4 2.8 0.5 0.8-0.1 1.5 0 2.2 0 0.7 3.8 1.5 7.8 3.5 10.8 0.4 0.7 1.7 0.3 1.5-0.5-0.7-2.6-1.6-5.1-2.6-7.6l-10.4-52.5z" fill="#747DED"/>
			
				<linearGradient id="b" x1="447.11" x2="398.44" y1="410.41" y2="349.04" gradientTransform="matrix(.6072 -.7945 -.7945 -.6072 379.42 809.81)" gradientUnits="userSpaceOnUse">
				<stop stop-color="#606BF1" offset="0"/>
				<stop stop-color="#58479F" offset="1"/>
			</linearGradient>
			<path d="m347.7 248.6c0.5 10.5 5.4 27.4-7.1 33.4-3.4 1.6-7.4 0-10.2-2.3-3.6-3-6.3-10.7-7.4-15.2-0.9-3.6-0.6-7.8-1.2-11.5-0.6-4-1.2-7.9-1.7-11.9-1.9-14.3 2.4-27.9 13-37.9 2.1 4.3 5.3 7.6 8.3 11.6 1.4 1.8 2.7 3.7 3.8 5.6 2 3.5 1.7 7.5 1.7 11.3-0.1 5.7 0.5 11.4 0.8 16.9z" fill="url(#b)"/>
			<path d="m338.4 283c-0.1-0.9-0.2-1.7-0.3-2.6 1.6-0.6 3-1.5 4.1-2.7 1.9-1.8 3.5-3.9 4.8-6.2 0.1-0.1-0.1-0.2-0.2-0.1-1.4 2-3 3.9-4.8 5.5-1.2 1.1-2.5 2-4 2.8-0.1-1-0.2-2.1-0.3-3.1 1.6-0.6 2.8-2.1 4-3.3 1.9-2.1 3.7-4.3 5.3-6.6-2.6 3.2-5.4 7.4-9.3 9.2-0.1-1.3-0.2-2.6-0.2-3.9v-0.2c4.4-2.4 6.7-6.9 9.5-10.8 0-0.1 0-0.1-0.1-0.1-2.9 3.7-5.4 7.7-9.5 10.1-0.1-1.9-0.1-3.7-0.2-5.6 3.8-2.6 6.8-6.1 8.8-10.3v-0.1h-0.1c-2.3 4-5.2 6.7-8.7 9.5 0-1.9-0.1-3.7-0.2-5.5 1.6-1.4 3.4-2.4 4.8-4s2.5-3.4 3.2-5.4c0 0 0-0.1-0.1-0.1h-0.1c-1.5 4.1-4.9 6-7.9 8.7l-0.3-5.1c3.3-3.1 7.1-6.2 8.2-10.8 0 0-0.1-0.1-0.1 0-1.4 4.4-5 7-8.2 10 0-0.3 0-0.6-0.1-0.9-0.1-1.6-0.3-3.2-0.5-4.8 2-1.5 3.8-3.2 5.5-5.1 1.3-1.2 2.3-2.7 3-4.3 0-0.1-0.1-0.2-0.2-0.1-1.3 3.5-5.5 6.4-8.4 8.7-0.2-1.6-0.4-3.2-0.5-4.8 3.2-3.2 7.3-5.6 8.5-10.2 0-0.1 0-0.1-0.1-0.1s-0.1 0-0.1 0.1c-1.4 4.3-5.4 6.5-8.4 9.6l-0.3-3c3.7-2.5 7.5-7.1 8.7-11.3 0-0.1-0.1-0.2-0.2-0.2s-0.1 0-0.2 0.1c-1.7 4.2-4.7 7.9-8.4 10.4-0.1-1.6-0.3-3.2-0.4-4.8v-0.1c1.7-1.2 3.2-2.5 4.5-4.1 1.7-1.6 3-3.5 3.7-5.7 0.1-0.3-0.3-0.4-0.4-0.1-1 3.7-4.7 6.9-7.9 9 0-0.6-0.1-1.2-0.1-1.8 0-0.9-0.1-1.8-0.1-2.6 1.2-1.4 2.9-2.3 4.1-3.7 1-1.3 1.9-2.6 2.6-4v-0.2h-0.2c-1 1.8-2.3 3.4-3.8 4.8-0.9 0.8-1.9 1.4-2.7 2.2l-0.1-4.3h0.1c0.1 0 0.2-0.1 0.2-0.1 1.8-1 2.9-3.1 3.9-4.8 0 0 0-0.1-0.1 0-1 1.8-2.4 3.3-4 4.5h-0.1c-0.1-1.2-0.1-2.3-0.2-3.5 0.1-0.1 0.2-0.2 0.2-0.3 0.8-1 1.6-2.1 2.3-3.2 0 0 0-0.1-0.1-0.1h-0.1c-0.7 1-1.5 1.9-2.4 2.8-0.2-2.4-0.5-4.8-1-7.2 0-0.1-0.1-0.2-0.2-0.1-0.1 0-0.2 0.1-0.1 0.2 0.4 2.3 0.6 4.6 0.8 7-1.5-1.1-2.9-2.3-4.1-3.8 0-0.1-0.2 0-0.1 0.1 0.6 0.9 1.3 1.7 2.1 2.4l2.1 2.1c0.1 1.3 0.1 2.5 0.2 3.8-1.4 0.2-2.7 0.1-4-0.5-1.6-0.8-2.8-2.2-3.4-3.9-0.1-0.2-0.4-0.1-0.3 0.1 0.5 1.6 1.6 3 3 3.9 1.4 0.8 3 1.2 4.6 1 0.1 1.4 0.1 2.9 0.1 4.4-1.4-0.5-2.7-1-4-1.7-2.1-0.9-3.5-2.4-5.4-3.5-0.1-0.1-0.2 0-0.2 0-0.1 0.1 0 0.2 0 0.2 1.8 1.1 3.2 2.5 5.1 3.5 1.4 0.8 3 1.5 4.5 1.9v0.2c-0.1 0.1-0.1 0.2 0 0.3 0 1.4 0.1 2.8 0.1 4.2v0.3c-3.4-0.6-8.6-1.9-9.9-5.4 0-0.1-0.2-0.2-0.3-0.2s-0.2 0.2-0.2 0.3v0.1c1.9 3.8 6.8 4.5 10.4 5.9 0.1 1.6 0.2 3.1 0.3 4.7-2.2-0.1-4.3-0.6-6.3-1.4-1.8-0.8-4.3-1.7-5.5-3.4 0-0.1-0.1 0-0.1 0.1 1.1 1.7 3.4 2.5 5.1 3.4 2.1 1.2 4.4 2 6.8 2.1v0.2l0.3 3c-3.8 0.7-9.7-0.9-12.4-3.2 1.9 1.7 4.2 2.8 6.6 3.1 1.9 0.6 3.8 0.8 5.8 0.6 0.2 1.8 0.4 3.7 0.5 5.5-1.8-0.2-3.6-0.1-5.3-0.3-2.6-0.4-4.9-1.6-6.8-3.4-0.1-0.1-0.3 0.1-0.2 0.2 3.6 3.5 7.6 3.7 12.4 4.2 0.1 1.5 0.3 3 0.4 4.5-3.7 0.2-8.9-0.8-11.5-3.4-0.2-0.2-0.5 0.1-0.3 0.3 1.7 1.6 3.9 2.6 6.2 3 1.6 0.4 3.9 1.1 5.7 0.8v0.1c0.2 2.2 0.3 4.4 0.4 6.5-4.2 0-7.5-2.3-11.1-4.3-0.3-0.1-0.5 0.2-0.2 0.4 3.7 2.2 7 4.6 11.4 4.6 0.1 1.8 0.1 3.5 0.1 5.3-3.8-0.2-7.5-1.6-10.5-3.9-0.2-0.1-0.4 0.2-0.2 0.3 3.1 2.4 6.8 3.9 10.7 4.2v5.7c-3.6 0.4-6.9-1.2-9.7-3.4-0.1 0-0.2 0.1-0.1 0.1 2.6 2.2 6.2 4.5 9.8 4v1.8 1.1c-2.8-0.1-5.5-0.7-8.1-1.8v0.1c2.5 1.3 5.3 2 8.1 2.1 0 1.1 0 2.3-0.1 3.5-0.7-0.2-1.5-0.3-2.2-0.3-1.3-0.2-2.6-0.5-3.8-1.1-0.1 0-0.2 0.1-0.1 0.2 1.1 0.5 2.2 0.9 3.3 1.2 0.9 0.1 1.8 0.3 2.7 0.5-0.1 4.8 0.1 9.8 1.7 13.9 0.4 0.9 2 0.8 2-0.3 0.4-3.5-0.5-6.8-0.9-10z" fill="#747DED"/>
			<polygon points="354.6 286.9 354.1 295.4 353.4 308.7 352.2 330.6 322.6 330.6 321.4 308.7 320.7 295.4 320.2 286.9" fill="#95A8B5"/>
			<polygon points="354.1 295.4 354 297.1 353.9 298.9 353.4 308.7 321.4 308.7 320.9 298.9 320.8 297.1 320.7 295.4" fill="#A5B7C6"/>
			<polygon points="354 297.1 353.9 298.9 320.9 298.9 320.8 297.1" fill="#95A8B5"/>
		
	

</svg>
