<svg xmlns="http://www.w3.org/2000/svg" viewBox="0 0 751.41 822.59"><defs><style>.cls-1{fill:#5398be;}</style></defs><g id="Layer_2" data-name="Layer 2"><g id="Layer_1-2" data-name="Layer 1"><path class="cls-1" d="M460.25,0c-1.6,0-320.8-.06-322.38.12C61.74,2.75.09,66.73.09,143.59v.25c0,532.4-.53,536.76,1,541,3,76.14,65.62,137.72,142.53,137.72,78.65,0,142.64-64.41,142.64-143.57,0-.1,0-37.89,0-38v-54.9h174c160.55,0,291.16-131.47,291.16-293.07S620.8,0,460.25,0Zm-1,271.13a22.91,22.91,0,0,1,22.8,23c0,10.44-7.48,23-25.62,23l-153,.08-.1-46Zm1,281c-83.51,0-255.15-1.35-315,3.65-46,3.87-89.36,21.08-111.33,55.2V428.14c9.5-72.7,83-77.19,133.32-77.19l287.51-.29c52.35-3.62,89.73-30.82,110.94-69.74,42.91-78.75,20.31-186.39-65-243.63C623.42,56.87,717.57,164.1,717.57,293.08,717.57,435.91,602.14,552.1,460.25,552.1Z"/></g></g></svg>