<svg id="Layer_3" data-name="Layer 3" xmlns="http://www.w3.org/2000/svg" viewBox="0 0 1000 800"><defs><style>.cls-1{fill:#231f20;}</style></defs><path class="cls-1" d="M480.82,82.29c28.76,0,56.94.92,84.35,2.66l.93-3.22c11.57-40-22-78.66-63.27-72.78h0a57.42,57.42,0,0,0-47.19,41.4l-9.05,32.38Q463.55,82.29,480.82,82.29Z"/><path class="cls-1" d="M510.21,417.14q-12.22.54-24.27.8l-9.49,32.84q17.42-.22,35.19-1,11.82-.52,23.45-1.28c141-17.39,256-58.47,310.24-108.75C770.26,381.06,648.58,411.05,510.21,417.14Z"/><path class="cls-1" d="M435.08,122.57l-.23.78q6.61-.22,13.28-.38C443.79,122.82,439.45,122.68,435.08,122.57Z"/><path class="cls-1" d="M345.46,787.07h0a57.26,57.26,0,0,0,30.7-36L540.58,170c-37.24-4.22-76.49-6.77-117.07-7.4L266.13,719.33C252.47,766.62,300.89,808,345.46,787.07Z"/><path class="cls-1" d="M480.82,104.34c-202.18,0-375.86,44.89-451.53,109.07,84.93-42,220.83-69.19,374-69.19,257.35,0,466,76.78,466,171.51,0,52.75-64.73,99.94-166.52,131.4,160.26-29.86,270.13-91,270.13-161.68C972.86,185.43,752.57,104.34,480.82,104.34Z"/></svg>